<?xml version="1.0" encoding="UTF-8" standalone="no"?>
<svg width="600px" height="600px">
  <defs>
    <clipPath id="hexagon" clipPathUnits="objectBoundingBox">

      <!-- <rect x="150" y="150" width="100" height="100" /> -->
      <path
        d="M 0.46007959,0 C 0.42259009,0 0.38461493,0.01129542 0.34720689,0.03357606 0.26904136,0.08013949 0.18845381,0.12606374 0.11052013,0.17047463 l -0.003353,0.001911 C 0.03752135,0.21207184 5.3629422e-4,0.27427653 2.1356803e-4,0.35227287 6.9437881e-5,0.38688917 1.1017031e-4,0.42202246 1.4776948e-4,0.45599644 c 1.566632e-5,0.0145822 3.133264e-5,0.0291707 3.133264e-5,0.0437529 3.13327e-6,0.01566 -4.386569e-5,0.031317 -9.0864655e-5,0.0469708 -1.00264448e-4,0.0343218 -2.06795425e-4,0.0698091 2.41261325e-4,0.10489541 4.6058981e-4,0.0356096 0.008582011,0.067948 0.0241355412,0.0961097 0.01609557,0.0291488 0.03974545,0.0531558 0.07028851,0.0713538 0.06125844,0.0365025 0.12403339,0.0723596 0.18473724,0.1070323 0.0259748,0.0148329 0.05283,0.0301796 0.0791619,0.0453352 C 0.39155197,0.99039341 0.42546642,1 0.45944667,1 0.49352092,1 0.5275137,0.99034015 0.5604819,0.9712899 0.58354899,0.957961 0.60659415,0.94459136 0.6296393,0.93122172 0.68913372,0.89669942 0.75065849,0.86100841 0.81145635,0.82669917 0.88129053,0.78730151 0.91842284,0.72518768 0.91882704,0.64706914 0.91937222,0.54232413 0.91936282,0.44515535 0.91879257,0.34999499 0.91835391,0.27509118 0.8844426,0.2155811 0.82072141,0.17789733 0.77091818,0.14844778 0.7200371,0.11920189 0.67083232,0.09091479 0.63640715,0.07112509 0.60080387,0.05065861 0.56597765,0.03035819 0.53141461,0.01021444 0.4957894,0 0.46007959,0 Z" />
    </clipPath>
  </defs>
</svg>
